<svg width="654" height="89" viewBox="0 0 654 89" fill="none" xmlns="http://www.w3.org/2000/svg">
<g clip-path="url(#clip0)">
<path fill-rule="evenodd" clip-rule="evenodd" d="M67.5774 9.5279V6.67992C67.5774 4.64757 65.9246 2.99927 63.8868 2.99927H54.5696C52.5312 2.99927 50.879 4.64757 50.879 6.67992V8.72166H13.0527C8.20809 8.72166 1 11.9231 1 20.7425V70.45C1 75.2822 4.21014 82.4709 13.0527 82.4709H62.8994C67.7446 82.4709 74.9527 79.2694 74.9527 70.45V20.7425C74.9527 16.8856 72.9013 11.5338 67.5774 9.5279Z" fill="#FF2636"/>
<path fill-rule="evenodd" clip-rule="evenodd" d="M61.6511 43.395H55.5517C54.3312 43.395 53.342 44.3821 53.342 45.5988C53.342 46.8155 54.3312 47.8026 55.5517 47.8026H61.6511C62.8711 47.8026 63.8609 46.8155 63.8609 45.5988C63.8609 44.3821 62.8711 43.395 61.6511 43.395Z" fill="#FFFFFE"/>
<path fill-rule="evenodd" clip-rule="evenodd" d="M52.0137 39.3661C52.51 40.4783 53.816 40.978 54.9312 40.4824L60.503 38.0085C61.6176 37.514 62.1192 36.211 61.6229 35.0994C61.1265 33.9878 59.8205 33.4875 58.7054 33.9825L53.1335 36.4571C52.0184 36.9521 51.5173 38.2539 52.0137 39.3661Z" fill="#FFFFFE"/>
<path fill-rule="evenodd" clip-rule="evenodd" d="M51.3783 34.0477L55.4599 29.5274C56.2765 28.623 56.2029 27.2296 55.2962 26.4151C54.3894 25.6012 52.9922 25.6741 52.1755 26.5784L48.0946 31.0987C47.2779 32.003 47.3509 33.3965 48.2577 34.211C49.165 35.0248 50.5622 34.952 51.3783 34.0477Z" fill="#FFFFFE"/>
<path fill-rule="evenodd" clip-rule="evenodd" d="M45.5092 61.588C45.1318 60.43 43.8859 59.797 42.7253 60.1734C42.7236 60.174 42.7224 60.1746 42.7212 60.1746C41.2262 60.6584 39.633 60.9233 37.9767 60.9233C29.4909 60.9233 22.6113 54.0623 22.6113 45.5988C22.6113 37.1359 29.4909 30.2755 37.9767 30.2755C39.633 30.2755 41.2263 30.5397 42.7206 31.023C42.7218 31.0236 42.7236 31.0242 42.7247 31.0247C43.8853 31.4012 45.1318 30.7675 45.5092 29.6102L47.3933 23.8249C47.7708 22.6675 47.1354 21.4244 45.9749 21.0486V21.0474C43.4554 20.2312 40.7688 19.7849 37.9767 19.7849C23.6812 19.7849 12.093 31.3424 12.093 45.5988C12.093 59.8557 23.6812 71.4127 37.9767 71.4127C40.7688 71.4127 43.4554 70.9664 45.9749 70.1507V70.1502C45.9749 70.1496 45.9749 70.1496 45.9755 70.1496C47.136 69.7732 47.7708 68.5306 47.3939 67.3726L45.5092 61.588Z" fill="#FFFFFE"/>
<path fill-rule="evenodd" clip-rule="evenodd" d="M51.3789 57.1498C50.5622 56.2455 49.165 56.1726 48.2583 56.9871C47.3509 57.8016 47.2785 59.1944 48.0946 60.0993L52.1761 64.6197C52.9928 65.524 54.3894 65.5968 55.2968 64.7824C56.2035 63.9685 56.2765 62.5744 55.4599 61.6701L51.3789 57.1498Z" fill="#FFFFFE"/>
<path fill-rule="evenodd" clip-rule="evenodd" d="M60.5029 53.1889L54.9311 50.7144C53.8159 50.2194 52.51 50.7198 52.0136 51.8314C51.5173 52.9436 52.0189 54.246 53.1335 54.741L58.7053 57.2148C59.8205 57.7099 61.1265 57.2101 61.6228 56.098C62.1192 54.987 61.6175 53.6839 60.5029 53.1889Z" fill="#FFFFFE"/>
<path d="M109.392 70.2799C114.768 70.2799 119.376 68.3173 123.045 64.3919C126.715 60.4666 128.592 55.6879 128.592 49.9706C128.592 44.2533 126.715 39.4746 123.045 35.6346C119.376 31.7093 114.768 29.7466 109.392 29.7466C104.528 29.7466 100.688 31.3679 97.7867 34.6106C97.104 35.2079 96.1653 34.7813 96.1653 34.0133V8.2426C96.1653 6.87727 95.056 5.85327 93.776 5.85327H90.0213C88.656 5.85327 87.632 6.87727 87.632 8.2426V66.6106C87.632 67.8906 88.656 68.9999 90.0213 68.9999H93.0933C94.3733 68.9999 95.1413 68.3173 95.3973 67.0373L95.4827 64.4773C95.568 63.7093 96.4213 63.5386 97.0187 64.3066C100.005 68.3173 104.101 70.2799 109.392 70.2799ZM108.112 37.9386C111.44 37.9386 114.256 39.1333 116.56 41.4373C118.864 43.7413 120.059 46.6426 120.059 49.9706C120.059 53.2986 118.864 56.1999 116.56 58.5039C114.256 60.8079 111.44 62.0026 108.112 62.0026C104.784 62.0026 101.883 60.8079 99.5787 58.5039C97.2747 56.1999 96.1653 53.2986 96.1653 49.9706C96.1653 46.6426 97.2747 43.7413 99.5787 41.4373C101.883 39.1333 104.784 37.9386 108.112 37.9386Z" fill="#6D6E71"/>
<path d="M153.349 70.2799C158.555 70.2799 162.736 68.3173 165.723 64.3066C166.32 63.5386 167.088 63.7093 167.173 64.4773L167.259 67.0373C167.515 68.3173 168.283 68.9999 169.563 68.9999H172.72C174 68.9999 175.109 67.8906 175.109 66.6106V33.4159C175.109 32.0506 174 31.0266 172.72 31.0266H169.563C168.453 31.0266 167.344 31.7946 167.259 32.9039L167.173 35.4639C167.088 36.2319 166.32 36.4026 165.723 35.7199C162.736 31.7093 158.64 29.7466 153.349 29.7466C147.973 29.7466 143.365 31.7093 139.696 35.6346C136.027 39.4746 134.149 44.2533 134.149 49.9706C134.149 55.6879 136.027 60.4666 139.696 64.3919C143.365 68.3173 147.973 70.2799 153.349 70.2799ZM154.629 37.9386C157.957 37.9386 160.773 39.1333 163.077 41.4373C165.381 43.7413 166.576 46.6426 166.576 49.9706C166.576 53.2986 165.381 56.1999 163.077 58.5039C160.773 60.8079 157.957 62.0026 154.629 62.0026C151.301 62.0026 148.4 60.8079 146.096 58.5039C143.792 56.1999 142.683 53.2986 142.683 49.9706C142.683 46.6426 143.792 43.7413 146.096 41.4373C148.4 39.1333 151.301 37.9386 154.629 37.9386Z" fill="#6D6E71"/>
<path d="M192.357 68.9999C193.723 68.9999 194.747 67.8906 194.747 66.6106V45.3626C194.747 44.6799 195.003 43.9973 195.429 43.3999C197.733 39.8159 200.464 38.0239 203.451 38.0239C207.632 38.0239 209.68 40.3279 209.68 44.9359V66.6106C209.68 67.8906 210.789 68.9999 212.069 68.9999H215.824C217.189 68.9999 218.213 67.8906 218.213 66.6106V42.2053C218.213 34.3546 213.52 29.7466 206.267 29.7466C202.256 29.7466 198.672 31.6239 195.515 35.2933C194.917 35.9759 194.149 35.8906 194.149 35.2079L194.064 33.1599C193.979 31.8799 193.04 31.0266 191.76 31.0266H188.603C187.323 31.0266 186.213 32.0506 186.213 33.4159V66.6106C186.213 67.8906 187.323 68.9999 188.603 68.9999H192.357Z" fill="#6D6E71"/>
<path d="M246.633 89.0533C252.521 89.0533 257.3 87.2613 261.14 83.6773C264.98 80.1786 266.943 75.4853 266.943 69.6826V33.4159C266.943 32.0506 265.833 31.0266 264.553 31.0266H261.396C260.287 31.0266 259.177 31.7946 259.092 32.9039L259.007 35.4639C258.921 36.2319 258.153 36.4026 257.556 35.7199C254.399 31.7093 250.303 29.7466 245.183 29.7466C239.807 29.7466 235.199 31.7093 231.529 35.5493C227.86 39.3893 225.983 43.9973 225.983 49.5439C225.983 55.0906 227.86 59.7839 231.529 63.6239C235.199 67.4639 239.807 69.4266 245.183 69.4266C249.705 69.4266 253.545 67.8053 256.703 64.4773C257.385 63.8799 258.409 64.2213 258.409 65.1599V69.6826C258.409 76.9359 253.46 81.4586 246.719 81.4586C241.343 81.4586 237.503 78.5573 236.564 74.7173C236.137 73.6079 235.284 73.0959 233.833 73.0959H229.993C228.372 73.0959 227.433 74.2906 227.775 75.7413C228.457 79.6666 230.505 82.8239 234.004 85.2986C237.503 87.7733 241.769 89.0533 246.633 89.0533ZM246.463 61.8319C243.135 61.8319 240.233 60.6373 237.929 58.3333C235.625 56.0293 234.516 53.1279 234.516 49.7999C234.516 46.4719 235.625 43.5706 237.929 41.2666C240.233 38.9626 243.135 37.7679 246.463 37.7679C249.791 37.7679 252.607 38.9626 254.911 41.2666C257.215 43.5706 258.409 46.4719 258.409 49.7999C258.409 53.1279 257.215 56.0293 254.911 58.3333C252.607 60.6373 249.791 61.8319 246.463 61.8319Z" fill="#6D6E71"/>
<path d="M299.892 70.2799C305.268 70.2799 309.876 68.3173 313.545 64.3919C317.215 60.4666 319.092 55.6879 319.092 49.9706C319.092 44.2533 317.215 39.4746 313.545 35.6346C309.876 31.7093 305.268 29.7466 299.892 29.7466C295.028 29.7466 291.188 31.3679 288.287 34.6106C287.604 35.2079 286.665 34.7813 286.665 34.0133V8.2426C286.665 6.87727 285.556 5.85327 284.276 5.85327H280.521C279.156 5.85327 278.132 6.87727 278.132 8.2426V66.6106C278.132 67.8906 279.156 68.9999 280.521 68.9999H283.593C284.873 68.9999 285.641 68.3173 285.897 67.0373L285.983 64.4773C286.068 63.7093 286.921 63.5386 287.519 64.3066C290.505 68.3173 294.601 70.2799 299.892 70.2799ZM298.612 37.9386C301.94 37.9386 304.756 39.1333 307.06 41.4373C309.364 43.7413 310.559 46.6426 310.559 49.9706C310.559 53.2986 309.364 56.1999 307.06 58.5039C304.756 60.8079 301.94 62.0026 298.612 62.0026C295.284 62.0026 292.383 60.8079 290.079 58.5039C287.775 56.1999 286.665 53.2986 286.665 49.9706C286.665 46.6426 287.775 43.7413 290.079 41.4373C292.383 39.1333 295.284 37.9386 298.612 37.9386Z" fill="#6D6E71"/>
<path d="M343.849 70.2799C349.055 70.2799 353.236 68.3173 356.223 64.3066C356.82 63.5386 357.588 63.7093 357.673 64.4773L357.759 67.0373C358.015 68.3173 358.783 68.9999 360.063 68.9999H363.22C364.5 68.9999 365.609 67.8906 365.609 66.6106V33.4159C365.609 32.0506 364.5 31.0266 363.22 31.0266H360.063C358.953 31.0266 357.844 31.7946 357.759 32.9039L357.673 35.4639C357.588 36.2319 356.82 36.4026 356.223 35.7199C353.236 31.7093 349.14 29.7466 343.849 29.7466C338.473 29.7466 333.865 31.7093 330.196 35.6346C326.527 39.4746 324.649 44.2533 324.649 49.9706C324.649 55.6879 326.527 60.4666 330.196 64.3919C333.865 68.3173 338.473 70.2799 343.849 70.2799ZM345.129 37.9386C348.457 37.9386 351.273 39.1333 353.577 41.4373C355.881 43.7413 357.076 46.6426 357.076 49.9706C357.076 53.2986 355.881 56.1999 353.577 58.5039C351.273 60.8079 348.457 62.0026 345.129 62.0026C341.801 62.0026 338.9 60.8079 336.596 58.5039C334.292 56.1999 333.183 53.2986 333.183 49.9706C333.183 46.6426 334.292 43.7413 336.596 41.4373C338.9 39.1333 341.801 37.9386 345.129 37.9386Z" fill="#6D6E71"/>
<path d="M382.857 68.9999C384.223 68.9999 385.247 67.8906 385.247 66.6106V45.3626C385.247 44.6799 385.503 43.9973 385.929 43.3999C388.233 39.8159 390.964 38.0239 393.951 38.0239C398.132 38.0239 400.18 40.3279 400.18 44.9359V66.6106C400.18 67.8906 401.289 68.9999 402.569 68.9999H406.324C407.689 68.9999 408.713 67.8906 408.713 66.6106V42.2053C408.713 34.3546 404.02 29.7466 396.767 29.7466C392.756 29.7466 389.172 31.6239 386.015 35.2933C385.417 35.9759 384.649 35.8906 384.649 35.2079L384.564 33.1599C384.479 31.8799 383.54 31.0266 382.26 31.0266H379.103C377.823 31.0266 376.713 32.0506 376.713 33.4159V66.6106C376.713 67.8906 377.823 68.9999 379.103 68.9999H382.857Z" fill="#6D6E71"/>
<path d="M437.133 89.0533C443.021 89.0533 447.8 87.2613 451.64 83.6773C455.48 80.1786 457.443 75.4853 457.443 69.6826V33.4159C457.443 32.0506 456.333 31.0266 455.053 31.0266H451.896C450.787 31.0266 449.677 31.7946 449.592 32.9039L449.507 35.4639C449.421 36.2319 448.653 36.4026 448.056 35.7199C444.899 31.7093 440.803 29.7466 435.683 29.7466C430.307 29.7466 425.699 31.7093 422.029 35.5493C418.36 39.3893 416.483 43.9973 416.483 49.5439C416.483 55.0906 418.36 59.7839 422.029 63.6239C425.699 67.4639 430.307 69.4266 435.683 69.4266C440.205 69.4266 444.045 67.8053 447.203 64.4773C447.885 63.8799 448.909 64.2213 448.909 65.1599V69.6826C448.909 76.9359 443.96 81.4586 437.219 81.4586C431.843 81.4586 428.003 78.5573 427.064 74.7173C426.637 73.6079 425.784 73.0959 424.333 73.0959H420.493C418.872 73.0959 417.933 74.2906 418.275 75.7413C418.957 79.6666 421.005 82.8239 424.504 85.2986C428.003 87.7733 432.269 89.0533 437.133 89.0533ZM436.963 61.8319C433.635 61.8319 430.733 60.6373 428.429 58.3333C426.125 56.0293 425.016 53.1279 425.016 49.7999C425.016 46.4719 426.125 43.5706 428.429 41.2666C430.733 38.9626 433.635 37.7679 436.963 37.7679C440.291 37.7679 443.107 38.9626 445.411 41.2666C447.715 43.5706 448.909 46.4719 448.909 49.7999C448.909 53.1279 447.715 56.0293 445.411 58.3333C443.107 60.6373 440.291 61.8319 436.963 61.8319Z" fill="#6D6E71"/>
<path d="M490.392 70.2799C495.768 70.2799 500.376 68.3173 504.045 64.3919C507.715 60.4666 509.592 55.6879 509.592 49.9706C509.592 44.2533 507.715 39.4746 504.045 35.6346C500.376 31.7093 495.768 29.7466 490.392 29.7466C485.528 29.7466 481.688 31.3679 478.787 34.6106C478.104 35.2079 477.165 34.7813 477.165 34.0133V8.2426C477.165 6.87727 476.056 5.85327 474.776 5.85327H471.021C469.656 5.85327 468.632 6.87727 468.632 8.2426V66.6106C468.632 67.8906 469.656 68.9999 471.021 68.9999H474.093C475.373 68.9999 476.141 68.3173 476.397 67.0373L476.483 64.4773C476.568 63.7093 477.421 63.5386 478.019 64.3066C481.005 68.3173 485.101 70.2799 490.392 70.2799ZM489.112 37.9386C492.44 37.9386 495.256 39.1333 497.56 41.4373C499.864 43.7413 501.059 46.6426 501.059 49.9706C501.059 53.2986 499.864 56.1999 497.56 58.5039C495.256 60.8079 492.44 62.0026 489.112 62.0026C485.784 62.0026 482.883 60.8079 480.579 58.5039C478.275 56.1999 477.165 53.2986 477.165 49.9706C477.165 46.6426 478.275 43.7413 480.579 41.4373C482.883 39.1333 485.784 37.9386 489.112 37.9386Z" fill="#6D6E71"/>
<path d="M534.349 70.2799C539.555 70.2799 543.736 68.3173 546.723 64.3066C547.32 63.5386 548.088 63.7093 548.173 64.4773L548.259 67.0373C548.515 68.3173 549.283 68.9999 550.563 68.9999H553.72C555 68.9999 556.109 67.8906 556.109 66.6106V33.4159C556.109 32.0506 555 31.0266 553.72 31.0266H550.563C549.453 31.0266 548.344 31.7946 548.259 32.9039L548.173 35.4639C548.088 36.2319 547.32 36.4026 546.723 35.7199C543.736 31.7093 539.64 29.7466 534.349 29.7466C528.973 29.7466 524.365 31.7093 520.696 35.6346C517.027 39.4746 515.149 44.2533 515.149 49.9706C515.149 55.6879 517.027 60.4666 520.696 64.3919C524.365 68.3173 528.973 70.2799 534.349 70.2799ZM535.629 37.9386C538.957 37.9386 541.773 39.1333 544.077 41.4373C546.381 43.7413 547.576 46.6426 547.576 49.9706C547.576 53.2986 546.381 56.1999 544.077 58.5039C541.773 60.8079 538.957 62.0026 535.629 62.0026C532.301 62.0026 529.4 60.8079 527.096 58.5039C524.792 56.1999 523.683 53.2986 523.683 49.9706C523.683 46.6426 524.792 43.7413 527.096 41.4373C529.4 39.1333 532.301 37.9386 535.629 37.9386Z" fill="#6D6E71"/>
<path d="M573.357 68.9999C574.723 68.9999 575.747 67.8906 575.747 66.6106V45.3626C575.747 44.6799 576.003 43.9973 576.429 43.3999C578.733 39.8159 581.464 38.0239 584.451 38.0239C588.632 38.0239 590.68 40.3279 590.68 44.9359V66.6106C590.68 67.8906 591.789 68.9999 593.069 68.9999H596.824C598.189 68.9999 599.213 67.8906 599.213 66.6106V42.2053C599.213 34.3546 594.52 29.7466 587.267 29.7466C583.256 29.7466 579.672 31.6239 576.515 35.2933C575.917 35.9759 575.149 35.8906 575.149 35.2079L575.064 33.1599C574.979 31.8799 574.04 31.0266 572.76 31.0266H569.603C568.323 31.0266 567.213 32.0506 567.213 33.4159V66.6106C567.213 67.8906 568.323 68.9999 569.603 68.9999H573.357Z" fill="#6D6E71"/>
<path d="M627.633 89.0533C633.521 89.0533 638.3 87.2613 642.14 83.6773C645.98 80.1786 647.943 75.4853 647.943 69.6826V33.4159C647.943 32.0506 646.833 31.0266 645.553 31.0266H642.396C641.287 31.0266 640.177 31.7946 640.092 32.9039L640.007 35.4639C639.921 36.2319 639.153 36.4026 638.556 35.7199C635.399 31.7093 631.303 29.7466 626.183 29.7466C620.807 29.7466 616.199 31.7093 612.529 35.5493C608.86 39.3893 606.983 43.9973 606.983 49.5439C606.983 55.0906 608.86 59.7839 612.529 63.6239C616.199 67.4639 620.807 69.4266 626.183 69.4266C630.705 69.4266 634.545 67.8053 637.703 64.4773C638.385 63.8799 639.409 64.2213 639.409 65.1599V69.6826C639.409 76.9359 634.46 81.4586 627.719 81.4586C622.343 81.4586 618.503 78.5573 617.564 74.7173C617.137 73.6079 616.284 73.0959 614.833 73.0959H610.993C609.372 73.0959 608.433 74.2906 608.775 75.7413C609.457 79.6666 611.505 82.8239 615.004 85.2986C618.503 87.7733 622.769 89.0533 627.633 89.0533ZM627.463 61.8319C624.135 61.8319 621.233 60.6373 618.929 58.3333C616.625 56.0293 615.516 53.1279 615.516 49.7999C615.516 46.4719 616.625 43.5706 618.929 41.2666C621.233 38.9626 624.135 37.7679 627.463 37.7679C630.791 37.7679 633.607 38.9626 635.911 41.2666C638.215 43.5706 639.409 46.4719 639.409 49.7999C639.409 53.1279 638.215 56.0293 635.911 58.3333C633.607 60.6373 630.791 61.8319 627.463 61.8319Z" fill="#6D6E71"/>
</g>
<defs>
<clipPath id="clip0">
<rect width="654" height="89" fill="white"/>
</clipPath>
</defs>
</svg>
